<mxfile host="app.diagrams.net" modified="2023-06-18T19:47:16.735Z" agent="Mozilla/5.0 (Windows NT 10.0; Win64; x64) AppleWebKit/537.36 (KHTML, like Gecko) Chrome/114.0.0.0 Safari/537.36" etag="VKOilZgqcXwuHhN0vLOO" version="21.5.0" type="google">
  <diagram name="Page-1" id="b520641d-4fe3-3701-9064-5fc419738815">
    <mxGraphModel grid="1" page="1" gridSize="10" guides="1" tooltips="1" connect="1" arrows="1" fold="1" pageScale="1" pageWidth="1100" pageHeight="850" background="none" math="0" shadow="0">
      <root>
        <mxCell id="0" />
        <mxCell id="1" parent="0" />
        <mxCell id="E_lYnqVRtEGuCz4sBSCE-39" style="edgeStyle=orthogonalEdgeStyle;rounded=0;orthogonalLoop=1;jettySize=auto;html=1;" edge="1" parent="1" source="21ea969265ad0168-22" target="qf_Xf1xaWqLLTU25-IPU-7">
          <mxGeometry relative="1" as="geometry">
            <Array as="points">
              <mxPoint x="490" y="305" />
              <mxPoint x="490" y="305" />
            </Array>
          </mxGeometry>
        </mxCell>
        <mxCell id="21ea969265ad0168-22" value="Procesar&amp;nbsp;sondas" style="swimlane;html=1;fontStyle=0;childLayout=stackLayout;horizontal=1;startSize=30;fillColor=#e0e0e0;horizontalStack=0;resizeParent=1;resizeLast=0;collapsible=1;marginBottom=0;swimlaneFillColor=#ffffff;align=center;rounded=1;shadow=0;comic=0;labelBackgroundColor=none;strokeWidth=1;fontFamily=Verdana;fontSize=12" vertex="1" parent="1">
          <mxGeometry x="285" y="238" width="170" height="134" as="geometry">
            <mxRectangle x="560" y="340" width="150" height="40" as="alternateBounds" />
          </mxGeometry>
        </mxCell>
        <mxCell id="21ea969265ad0168-23" value="cargar datos de sondas" style="text;html=1;strokeColor=none;fillColor=none;spacingLeft=4;spacingRight=4;whiteSpace=wrap;overflow=hidden;rotatable=0;points=[[0,0.5],[1,0.5]];portConstraint=eastwest;" vertex="1" parent="21ea969265ad0168-22">
          <mxGeometry y="30" width="170" height="26" as="geometry" />
        </mxCell>
        <mxCell id="E_lYnqVRtEGuCz4sBSCE-17" value="setear organismo" style="text;html=1;strokeColor=none;fillColor=none;spacingLeft=4;spacingRight=4;whiteSpace=wrap;overflow=hidden;rotatable=0;points=[[0,0.5],[1,0.5]];portConstraint=eastwest;" vertex="1" parent="21ea969265ad0168-22">
          <mxGeometry y="56" width="170" height="26" as="geometry" />
        </mxCell>
        <mxCell id="5DtSrJkfHcDawv0QVdIE-29" value="setear error estándar límite" style="text;html=1;strokeColor=none;fillColor=none;spacingLeft=4;spacingRight=4;whiteSpace=wrap;overflow=hidden;rotatable=0;points=[[0,0.5],[1,0.5]];portConstraint=eastwest;" vertex="1" parent="21ea969265ad0168-22">
          <mxGeometry y="82" width="170" height="26" as="geometry" />
        </mxCell>
        <mxCell id="E_lYnqVRtEGuCz4sBSCE-44" value="setear path guardado genes" style="text;html=1;strokeColor=none;fillColor=none;spacingLeft=4;spacingRight=4;whiteSpace=wrap;overflow=hidden;rotatable=0;points=[[0,0.5],[1,0.5]];portConstraint=eastwest;" vertex="1" parent="21ea969265ad0168-22">
          <mxGeometry y="108" width="170" height="26" as="geometry" />
        </mxCell>
        <mxCell id="E_lYnqVRtEGuCz4sBSCE-40" style="edgeStyle=orthogonalEdgeStyle;rounded=0;orthogonalLoop=1;jettySize=auto;html=1;" edge="1" parent="1" source="qf_Xf1xaWqLLTU25-IPU-7" target="E_lYnqVRtEGuCz4sBSCE-21">
          <mxGeometry relative="1" as="geometry" />
        </mxCell>
        <mxCell id="5DtSrJkfHcDawv0QVdIE-31" style="edgeStyle=orthogonalEdgeStyle;rounded=0;orthogonalLoop=1;jettySize=auto;html=1;" edge="1" parent="1" source="qf_Xf1xaWqLLTU25-IPU-7" target="E_lYnqVRtEGuCz4sBSCE-35">
          <mxGeometry relative="1" as="geometry" />
        </mxCell>
        <mxCell id="qf_Xf1xaWqLLTU25-IPU-7" value="Mapear y filtrar" style="swimlane;html=1;fontStyle=0;childLayout=stackLayout;horizontal=1;startSize=30;fillColor=#e0e0e0;horizontalStack=0;resizeParent=1;resizeLast=0;collapsible=1;marginBottom=0;swimlaneFillColor=#ffffff;align=center;rounded=1;shadow=0;comic=0;labelBackgroundColor=none;strokeWidth=1;fontFamily=Verdana;fontSize=12" vertex="1" parent="1">
          <mxGeometry x="506.5" y="242" width="190" height="130" as="geometry">
            <mxRectangle x="545" y="510" width="200" height="30" as="alternateBounds" />
          </mxGeometry>
        </mxCell>
        <mxCell id="21ea969265ad0168-24" value="mapear sondas" style="text;html=1;strokeColor=none;fillColor=none;spacingLeft=4;spacingRight=4;whiteSpace=wrap;overflow=hidden;rotatable=0;points=[[0,0.5],[1,0.5]];portConstraint=eastwest;" vertex="1" parent="qf_Xf1xaWqLLTU25-IPU-7">
          <mxGeometry y="30" width="190" height="30" as="geometry" />
        </mxCell>
        <mxCell id="E_lYnqVRtEGuCz4sBSCE-18" value="filtrar por especificidad&lt;br&gt;a un organismo" style="text;html=1;strokeColor=none;fillColor=none;spacingLeft=4;spacingRight=4;whiteSpace=wrap;overflow=hidden;rotatable=0;points=[[0,0.5],[1,0.5]];portConstraint=eastwest;" vertex="1" parent="qf_Xf1xaWqLLTU25-IPU-7">
          <mxGeometry y="60" width="190" height="40" as="geometry" />
        </mxCell>
        <mxCell id="5DtSrJkfHcDawv0QVdIE-30" value="avisar y guardar sondas" style="text;html=1;strokeColor=none;fillColor=none;spacingLeft=4;spacingRight=4;whiteSpace=wrap;overflow=hidden;rotatable=0;points=[[0,0.5],[1,0.5]];portConstraint=eastwest;" vertex="1" parent="qf_Xf1xaWqLLTU25-IPU-7">
          <mxGeometry y="100" width="190" height="30" as="geometry" />
        </mxCell>
        <mxCell id="qf_Xf1xaWqLLTU25-IPU-22" style="edgeStyle=orthogonalEdgeStyle;rounded=0;orthogonalLoop=1;jettySize=auto;html=1;entryX=0.5;entryY=0;entryDx=0;entryDy=0;" edge="1" parent="1" source="qf_Xf1xaWqLLTU25-IPU-20" target="21ea969265ad0168-22">
          <mxGeometry relative="1" as="geometry" />
        </mxCell>
        <mxCell id="E_lYnqVRtEGuCz4sBSCE-45" style="edgeStyle=orthogonalEdgeStyle;rounded=0;orthogonalLoop=1;jettySize=auto;html=1;" edge="1" parent="1" source="qf_Xf1xaWqLLTU25-IPU-20">
          <mxGeometry relative="1" as="geometry">
            <mxPoint x="240" y="195" as="targetPoint" />
          </mxGeometry>
        </mxCell>
        <mxCell id="qf_Xf1xaWqLLTU25-IPU-20" value="Sondas e intensidad &lt;br&gt;por grupo" style="html=1;rounded=0;shadow=0;comic=0;labelBackgroundColor=none;strokeWidth=2;fontFamily=Verdana;fontSize=12;align=center;shape=mxgraph.ios7ui.horLines;" vertex="1" parent="1">
          <mxGeometry x="302.5" y="170" width="135" height="50" as="geometry" />
        </mxCell>
        <mxCell id="qf_Xf1xaWqLLTU25-IPU-29" value="Mostrar resultados expresión" style="swimlane;html=1;fontStyle=0;childLayout=stackLayout;horizontal=1;startSize=26;fillColor=#e0e0e0;horizontalStack=0;resizeParent=1;resizeLast=0;collapsible=1;marginBottom=0;swimlaneFillColor=#ffffff;align=center;rounded=1;shadow=0;comic=0;labelBackgroundColor=none;strokeWidth=1;fontFamily=Verdana;fontSize=12" vertex="1" parent="1">
          <mxGeometry x="315" y="390" width="190" height="214" as="geometry">
            <mxRectangle x="545" y="510" width="200" height="30" as="alternateBounds" />
          </mxGeometry>
        </mxCell>
        <mxCell id="qf_Xf1xaWqLLTU25-IPU-30" value="Cantidad de genes y sondas sobreexpresadas por nivel" style="text;html=1;strokeColor=none;fillColor=none;spacingLeft=4;spacingRight=4;whiteSpace=wrap;overflow=hidden;rotatable=0;points=[[0,0.5],[1,0.5]];portConstraint=eastwest;" vertex="1" parent="qf_Xf1xaWqLLTU25-IPU-29">
          <mxGeometry y="26" width="190" height="44" as="geometry" />
        </mxCell>
        <mxCell id="qf_Xf1xaWqLLTU25-IPU-43" value="Gráfico de barras&amp;nbsp;expresión vs gen y por nivel" style="text;html=1;strokeColor=none;fillColor=none;spacingLeft=4;spacingRight=4;whiteSpace=wrap;overflow=hidden;rotatable=0;points=[[0,0.5],[1,0.5]];portConstraint=eastwest;" vertex="1" parent="qf_Xf1xaWqLLTU25-IPU-29">
          <mxGeometry y="70" width="190" height="44" as="geometry" />
        </mxCell>
        <mxCell id="qf_Xf1xaWqLLTU25-IPU-44" value="Tabla de sobreexpresión de genes (nivel, gen)" style="text;html=1;strokeColor=none;fillColor=none;spacingLeft=4;spacingRight=4;whiteSpace=wrap;overflow=hidden;rotatable=0;points=[[0,0.5],[1,0.5]];portConstraint=eastwest;" vertex="1" parent="qf_Xf1xaWqLLTU25-IPU-29">
          <mxGeometry y="114" width="190" height="40" as="geometry" />
        </mxCell>
        <mxCell id="qf_Xf1xaWqLLTU25-IPU-60" value="Tabla de genes y cant de sondas" style="text;html=1;strokeColor=none;fillColor=none;spacingLeft=4;spacingRight=4;whiteSpace=wrap;overflow=hidden;rotatable=0;points=[[0,0.5],[1,0.5]];portConstraint=eastwest;" vertex="1" parent="qf_Xf1xaWqLLTU25-IPU-29">
          <mxGeometry y="154" width="190" height="30" as="geometry" />
        </mxCell>
        <mxCell id="5DtSrJkfHcDawv0QVdIE-15" value="Volcano plot" style="text;html=1;strokeColor=none;fillColor=none;spacingLeft=4;spacingRight=4;whiteSpace=wrap;overflow=hidden;rotatable=0;points=[[0,0.5],[1,0.5]];portConstraint=eastwest;" vertex="1" parent="qf_Xf1xaWqLLTU25-IPU-29">
          <mxGeometry y="184" width="190" height="30" as="geometry" />
        </mxCell>
        <mxCell id="8nUeaVmcHt-hz-5grroi-21" style="edgeStyle=orthogonalEdgeStyle;rounded=0;orthogonalLoop=1;jettySize=auto;html=1;entryX=0.5;entryY=0;entryDx=0;entryDy=0;" edge="1" parent="1" source="qf_Xf1xaWqLLTU25-IPU-40" target="BOw-arjrgK9SXbsuC369-19">
          <mxGeometry relative="1" as="geometry" />
        </mxCell>
        <mxCell id="E_lYnqVRtEGuCz4sBSCE-55" style="edgeStyle=orthogonalEdgeStyle;rounded=0;orthogonalLoop=1;jettySize=auto;html=1;" edge="1" parent="1" source="qf_Xf1xaWqLLTU25-IPU-40" target="E_lYnqVRtEGuCz4sBSCE-46">
          <mxGeometry relative="1" as="geometry">
            <Array as="points">
              <mxPoint x="780" y="400" />
              <mxPoint x="780" y="380" />
              <mxPoint x="210" y="380" />
            </Array>
          </mxGeometry>
        </mxCell>
        <mxCell id="qf_Xf1xaWqLLTU25-IPU-40" value="Genes por grupo" style="html=1;rounded=0;shadow=0;comic=0;labelBackgroundColor=none;strokeWidth=2;fontFamily=Verdana;fontSize=12;align=center;shape=mxgraph.ios7ui.horLines;" vertex="1" parent="1">
          <mxGeometry x="807.5" y="390" width="135" height="50" as="geometry" />
        </mxCell>
        <mxCell id="qf_Xf1xaWqLLTU25-IPU-46" value="Mostrar resultados de vías" style="swimlane;html=1;fontStyle=0;childLayout=stackLayout;horizontal=1;startSize=26;fillColor=#e0e0e0;horizontalStack=0;resizeParent=1;resizeLast=0;collapsible=1;marginBottom=0;swimlaneFillColor=#ffffff;align=center;rounded=1;shadow=0;comic=0;labelBackgroundColor=none;strokeWidth=1;fontFamily=Verdana;fontSize=12" vertex="1" parent="1">
          <mxGeometry x="315" y="720" width="190" height="70" as="geometry">
            <mxRectangle x="545" y="510" width="200" height="30" as="alternateBounds" />
          </mxGeometry>
        </mxCell>
        <mxCell id="qf_Xf1xaWqLLTU25-IPU-49" value="gráfico de vias (Fireworks)" style="text;html=1;strokeColor=none;fillColor=none;spacingLeft=4;spacingRight=4;whiteSpace=wrap;overflow=hidden;rotatable=0;points=[[0,0.5],[1,0.5]];portConstraint=eastwest;" vertex="1" parent="qf_Xf1xaWqLLTU25-IPU-46">
          <mxGeometry y="26" width="190" height="20" as="geometry" />
        </mxCell>
        <mxCell id="5DtSrJkfHcDawv0QVdIE-3" value="gráfico de barras (p-value)" style="text;html=1;strokeColor=none;fillColor=none;spacingLeft=4;spacingRight=4;whiteSpace=wrap;overflow=hidden;rotatable=0;points=[[0,0.5],[1,0.5]];portConstraint=eastwest;" vertex="1" parent="qf_Xf1xaWqLLTU25-IPU-46">
          <mxGeometry y="46" width="190" height="24" as="geometry" />
        </mxCell>
        <mxCell id="E_lYnqVRtEGuCz4sBSCE-53" style="edgeStyle=orthogonalEdgeStyle;rounded=0;orthogonalLoop=1;jettySize=auto;html=1;entryX=1;entryY=0.25;entryDx=0;entryDy=0;" edge="1" parent="1" source="BOw-arjrgK9SXbsuC369-1" target="E_lYnqVRtEGuCz4sBSCE-3">
          <mxGeometry relative="1" as="geometry" />
        </mxCell>
        <mxCell id="BOw-arjrgK9SXbsuC369-1" value="Agrupar muestras" style="swimlane;html=1;fontStyle=0;childLayout=stackLayout;horizontal=1;startSize=26;fillColor=#e0e0e0;horizontalStack=0;resizeParent=1;resizeLast=0;collapsible=1;marginBottom=0;swimlaneFillColor=#ffffff;align=center;rounded=1;shadow=0;comic=0;labelBackgroundColor=none;strokeWidth=1;fontFamily=Verdana;fontSize=12" vertex="1" parent="1">
          <mxGeometry x="690" y="11" width="174" height="156" as="geometry" />
        </mxCell>
        <mxCell id="5DtSrJkfHcDawv0QVdIE-32" value="cargar muestras" style="text;html=1;strokeColor=none;fillColor=none;spacingLeft=4;spacingRight=4;whiteSpace=wrap;overflow=hidden;rotatable=0;points=[[0,0.5],[1,0.5]];portConstraint=eastwest;" vertex="1" parent="BOw-arjrgK9SXbsuC369-1">
          <mxGeometry y="26" width="174" height="26" as="geometry" />
        </mxCell>
        <mxCell id="BOw-arjrgK9SXbsuC369-2" value="seleccionar muestras" style="text;html=1;strokeColor=none;fillColor=none;spacingLeft=4;spacingRight=4;whiteSpace=wrap;overflow=hidden;rotatable=0;points=[[0,0.5],[1,0.5]];portConstraint=eastwest;" vertex="1" parent="BOw-arjrgK9SXbsuC369-1">
          <mxGeometry y="52" width="174" height="26" as="geometry" />
        </mxCell>
        <mxCell id="E_lYnqVRtEGuCz4sBSCE-7" value="agrupar muestras" style="text;html=1;strokeColor=none;fillColor=none;spacingLeft=4;spacingRight=4;whiteSpace=wrap;overflow=hidden;rotatable=0;points=[[0,0.5],[1,0.5]];portConstraint=eastwest;" vertex="1" parent="BOw-arjrgK9SXbsuC369-1">
          <mxGeometry y="78" width="174" height="26" as="geometry" />
        </mxCell>
        <mxCell id="E_lYnqVRtEGuCz4sBSCE-8" value="setear error estándar límite" style="text;html=1;strokeColor=none;fillColor=none;spacingLeft=4;spacingRight=4;whiteSpace=wrap;overflow=hidden;rotatable=0;points=[[0,0.5],[1,0.5]];portConstraint=eastwest;" vertex="1" parent="BOw-arjrgK9SXbsuC369-1">
          <mxGeometry y="104" width="174" height="26" as="geometry" />
        </mxCell>
        <mxCell id="5DtSrJkfHcDawv0QVdIE-33" value="setear path guardado sondas" style="text;html=1;strokeColor=none;fillColor=none;spacingLeft=4;spacingRight=4;whiteSpace=wrap;overflow=hidden;rotatable=0;points=[[0,0.5],[1,0.5]];portConstraint=eastwest;" vertex="1" parent="BOw-arjrgK9SXbsuC369-1">
          <mxGeometry y="130" width="174" height="26" as="geometry" />
        </mxCell>
        <mxCell id="E_lYnqVRtEGuCz4sBSCE-6" style="edgeStyle=orthogonalEdgeStyle;rounded=0;orthogonalLoop=1;jettySize=auto;html=1;entryX=1;entryY=0.5;entryDx=0;entryDy=0;" edge="1" parent="1" source="BOw-arjrgK9SXbsuC369-7" target="E_lYnqVRtEGuCz4sBSCE-3">
          <mxGeometry relative="1" as="geometry" />
        </mxCell>
        <mxCell id="BOw-arjrgK9SXbsuC369-7" value="Datos de &lt;br&gt;muestras" style="html=1;rounded=0;shadow=0;comic=0;labelBackgroundColor=none;strokeWidth=2;fontFamily=Verdana;fontSize=12;align=center;shape=mxgraph.ios7ui.horLines;" vertex="1" parent="1">
          <mxGeometry x="530" y="101" width="135" height="50" as="geometry" />
        </mxCell>
        <mxCell id="8nUeaVmcHt-hz-5grroi-22" style="edgeStyle=orthogonalEdgeStyle;rounded=0;orthogonalLoop=1;jettySize=auto;html=1;entryX=0.5;entryY=0;entryDx=0;entryDy=0;" edge="1" parent="1" source="BOw-arjrgK9SXbsuC369-19" target="6efIbfthWVleyXhkKFmn-6">
          <mxGeometry relative="1" as="geometry" />
        </mxCell>
        <mxCell id="BOw-arjrgK9SXbsuC369-19" value="Procesar genes" style="swimlane;html=1;fontStyle=0;childLayout=stackLayout;horizontal=1;startSize=30;fillColor=#e0e0e0;horizontalStack=0;resizeParent=1;resizeLast=0;collapsible=1;marginBottom=0;swimlaneFillColor=#ffffff;align=center;rounded=1;shadow=0;comic=0;labelBackgroundColor=none;strokeWidth=1;fontFamily=Verdana;fontSize=12" vertex="1" parent="1">
          <mxGeometry x="780" y="460" width="190" height="150" as="geometry">
            <mxRectangle x="560" y="340" width="150" height="40" as="alternateBounds" />
          </mxGeometry>
        </mxCell>
        <mxCell id="8nUeaVmcHt-hz-5grroi-19" value="cargar datos" style="text;html=1;strokeColor=none;fillColor=none;spacingLeft=4;spacingRight=4;whiteSpace=wrap;overflow=hidden;rotatable=0;points=[[0,0.5],[1,0.5]];portConstraint=eastwest;" vertex="1" parent="BOw-arjrgK9SXbsuC369-19">
          <mxGeometry y="30" width="190" height="30" as="geometry" />
        </mxCell>
        <mxCell id="BOw-arjrgK9SXbsuC369-20" value="seleccionar grupo control" style="text;html=1;strokeColor=none;fillColor=none;spacingLeft=4;spacingRight=4;whiteSpace=wrap;overflow=hidden;rotatable=0;points=[[0,0.5],[1,0.5]];portConstraint=eastwest;" vertex="1" parent="BOw-arjrgK9SXbsuC369-19">
          <mxGeometry y="60" width="190" height="30" as="geometry" />
        </mxCell>
        <mxCell id="E_lYnqVRtEGuCz4sBSCE-56" value="setear p-value límite" style="text;html=1;strokeColor=none;fillColor=none;spacingLeft=4;spacingRight=4;whiteSpace=wrap;overflow=hidden;rotatable=0;points=[[0,0.5],[1,0.5]];portConstraint=eastwest;" vertex="1" parent="BOw-arjrgK9SXbsuC369-19">
          <mxGeometry y="90" width="190" height="30" as="geometry" />
        </mxCell>
        <mxCell id="5DtSrJkfHcDawv0QVdIE-34" value="setear path resultados" style="text;html=1;strokeColor=none;fillColor=none;spacingLeft=4;spacingRight=4;whiteSpace=wrap;overflow=hidden;rotatable=0;points=[[0,0.5],[1,0.5]];portConstraint=eastwest;" vertex="1" parent="BOw-arjrgK9SXbsuC369-19">
          <mxGeometry y="120" width="190" height="30" as="geometry" />
        </mxCell>
        <mxCell id="6efIbfthWVleyXhkKFmn-2" value="Mostrar aviso (log)" style="swimlane;html=1;fontStyle=1;childLayout=stackLayout;horizontal=1;startSize=30;fillColor=#f8cecc;horizontalStack=0;resizeParent=1;resizeLast=0;collapsible=1;marginBottom=0;swimlaneFillColor=#ffffff;align=center;rounded=1;shadow=0;comic=0;labelBackgroundColor=none;strokeWidth=1;fontFamily=Verdana;fontSize=12;strokeColor=#b85450;" vertex="1" parent="1">
          <mxGeometry x="20" y="317" width="160" height="108" as="geometry">
            <mxRectangle x="560" y="340" width="150" height="40" as="alternateBounds" />
          </mxGeometry>
        </mxCell>
        <mxCell id="6efIbfthWVleyXhkKFmn-3" value="mostrar error" style="text;html=1;strokeColor=none;fillColor=none;spacingLeft=4;spacingRight=4;whiteSpace=wrap;overflow=hidden;rotatable=0;points=[[0,0.5],[1,0.5]];portConstraint=eastwest;" vertex="1" parent="6efIbfthWVleyXhkKFmn-2">
          <mxGeometry y="30" width="160" height="26" as="geometry" />
        </mxCell>
        <mxCell id="8nUeaVmcHt-hz-5grroi-5" value="mostrar warning" style="text;html=1;strokeColor=none;fillColor=none;spacingLeft=4;spacingRight=4;whiteSpace=wrap;overflow=hidden;rotatable=0;points=[[0,0.5],[1,0.5]];portConstraint=eastwest;" vertex="1" parent="6efIbfthWVleyXhkKFmn-2">
          <mxGeometry y="56" width="160" height="26" as="geometry" />
        </mxCell>
        <mxCell id="6efIbfthWVleyXhkKFmn-4" value="mostrar fin de proceso" style="text;html=1;strokeColor=none;fillColor=none;spacingLeft=4;spacingRight=4;whiteSpace=wrap;overflow=hidden;rotatable=0;points=[[0,0.5],[1,0.5]];portConstraint=eastwest;" vertex="1" parent="6efIbfthWVleyXhkKFmn-2">
          <mxGeometry y="82" width="160" height="26" as="geometry" />
        </mxCell>
        <mxCell id="E_lYnqVRtEGuCz4sBSCE-61" style="edgeStyle=orthogonalEdgeStyle;rounded=0;orthogonalLoop=1;jettySize=auto;html=1;entryX=0.5;entryY=-0.02;entryDx=0;entryDy=0;entryPerimeter=0;" edge="1" parent="1" source="6efIbfthWVleyXhkKFmn-6" target="E_lYnqVRtEGuCz4sBSCE-60">
          <mxGeometry relative="1" as="geometry">
            <Array as="points">
              <mxPoint x="656" y="740" />
            </Array>
          </mxGeometry>
        </mxCell>
        <mxCell id="E_lYnqVRtEGuCz4sBSCE-87" style="edgeStyle=orthogonalEdgeStyle;rounded=0;orthogonalLoop=1;jettySize=auto;html=1;" edge="1" parent="1" source="6efIbfthWVleyXhkKFmn-6" target="E_lYnqVRtEGuCz4sBSCE-74">
          <mxGeometry relative="1" as="geometry">
            <Array as="points">
              <mxPoint x="760" y="685" />
              <mxPoint x="760" y="685" />
            </Array>
          </mxGeometry>
        </mxCell>
        <mxCell id="6efIbfthWVleyXhkKFmn-6" value="Procesar grupos de genes" style="swimlane;html=1;fontStyle=0;childLayout=stackLayout;horizontal=1;startSize=30;fillColor=#e0e0e0;horizontalStack=0;resizeParent=1;resizeLast=0;collapsible=1;marginBottom=0;swimlaneFillColor=#ffffff;align=center;rounded=1;shadow=0;comic=0;labelBackgroundColor=none;strokeWidth=1;fontFamily=Verdana;fontSize=12" vertex="1" parent="1">
          <mxGeometry x="775" y="640" width="200" height="180" as="geometry">
            <mxRectangle x="560" y="340" width="150" height="40" as="alternateBounds" />
          </mxGeometry>
        </mxCell>
        <mxCell id="6efIbfthWVleyXhkKFmn-7" value="calcular log2foldchange" style="text;html=1;strokeColor=none;fillColor=none;spacingLeft=4;spacingRight=4;whiteSpace=wrap;overflow=hidden;rotatable=0;points=[[0,0.5],[1,0.5]];portConstraint=eastwest;" vertex="1" parent="6efIbfthWVleyXhkKFmn-6">
          <mxGeometry y="30" width="200" height="30" as="geometry" />
        </mxCell>
        <mxCell id="6efIbfthWVleyXhkKFmn-8" value="calcular p-value" style="text;html=1;strokeColor=none;fillColor=none;spacingLeft=4;spacingRight=4;whiteSpace=wrap;overflow=hidden;rotatable=0;points=[[0,0.5],[1,0.5]];portConstraint=eastwest;" vertex="1" parent="6efIbfthWVleyXhkKFmn-6">
          <mxGeometry y="60" width="200" height="30" as="geometry" />
        </mxCell>
        <mxCell id="E_lYnqVRtEGuCz4sBSCE-57" value="filtrar p-value" style="text;html=1;strokeColor=none;fillColor=none;spacingLeft=4;spacingRight=4;whiteSpace=wrap;overflow=hidden;rotatable=0;points=[[0,0.5],[1,0.5]];portConstraint=eastwest;" vertex="1" parent="6efIbfthWVleyXhkKFmn-6">
          <mxGeometry y="90" width="200" height="30" as="geometry" />
        </mxCell>
        <mxCell id="E_lYnqVRtEGuCz4sBSCE-71" value="&lt;b&gt;avisar y guardar genes filtrados&lt;/b&gt;" style="text;html=1;strokeColor=none;fillColor=none;spacingLeft=4;spacingRight=4;whiteSpace=wrap;overflow=hidden;rotatable=0;points=[[0,0.5],[1,0.5]];portConstraint=eastwest;" vertex="1" parent="6efIbfthWVleyXhkKFmn-6">
          <mxGeometry y="120" width="200" height="30" as="geometry" />
        </mxCell>
        <mxCell id="hSbEQrDq_yG6GRqR9PPS-1" value="graficar q-q plot para limma" style="text;html=1;strokeColor=none;fillColor=none;spacingLeft=4;spacingRight=4;whiteSpace=wrap;overflow=hidden;rotatable=0;points=[[0,0.5],[1,0.5]];portConstraint=eastwest;" vertex="1" parent="6efIbfthWVleyXhkKFmn-6">
          <mxGeometry y="150" width="200" height="30" as="geometry" />
        </mxCell>
        <mxCell id="E_lYnqVRtEGuCz4sBSCE-28" style="edgeStyle=orthogonalEdgeStyle;rounded=0;orthogonalLoop=1;jettySize=auto;html=1;entryX=0.994;entryY=0.154;entryDx=0;entryDy=0;entryPerimeter=0;" edge="1" parent="1" source="hEHS_x9ZM1ayVBwrC5Qj-1" target="E_lYnqVRtEGuCz4sBSCE-7">
          <mxGeometry relative="1" as="geometry" />
        </mxCell>
        <mxCell id="hEHS_x9ZM1ayVBwrC5Qj-1" value="Metadatos &lt;br&gt;de muestras" style="html=1;rounded=0;shadow=0;comic=0;labelBackgroundColor=none;strokeWidth=2;fontFamily=Verdana;fontSize=12;align=center;shape=mxgraph.ios7ui.horLines;" vertex="1" parent="1">
          <mxGeometry x="910" y="51" width="135" height="50" as="geometry" />
        </mxCell>
        <mxCell id="E_lYnqVRtEGuCz4sBSCE-12" style="edgeStyle=orthogonalEdgeStyle;rounded=0;orthogonalLoop=1;jettySize=auto;html=1;entryX=0.5;entryY=-0.08;entryDx=0;entryDy=0;entryPerimeter=0;" edge="1" parent="1" source="E_lYnqVRtEGuCz4sBSCE-3" target="qf_Xf1xaWqLLTU25-IPU-20">
          <mxGeometry relative="1" as="geometry" />
        </mxCell>
        <mxCell id="E_lYnqVRtEGuCz4sBSCE-14" style="edgeStyle=orthogonalEdgeStyle;rounded=0;orthogonalLoop=1;jettySize=auto;html=1;" edge="1" parent="1" source="E_lYnqVRtEGuCz4sBSCE-3" target="E_lYnqVRtEGuCz4sBSCE-9">
          <mxGeometry relative="1" as="geometry" />
        </mxCell>
        <mxCell id="E_lYnqVRtEGuCz4sBSCE-3" value="Procesar muestras" style="swimlane;html=1;fontStyle=0;childLayout=stackLayout;horizontal=1;startSize=26;fillColor=#e0e0e0;horizontalStack=0;resizeParent=1;resizeLast=0;collapsible=1;marginBottom=0;swimlaneFillColor=#ffffff;align=center;rounded=1;shadow=0;comic=0;labelBackgroundColor=none;strokeWidth=1;fontFamily=Verdana;fontSize=12" vertex="1" parent="1">
          <mxGeometry x="290" y="23" width="160" height="110" as="geometry" />
        </mxCell>
        <mxCell id="E_lYnqVRtEGuCz4sBSCE-4" value="promediar intensidad" style="text;html=1;strokeColor=none;fillColor=none;spacingLeft=4;spacingRight=4;whiteSpace=wrap;overflow=hidden;rotatable=0;points=[[0,0.5],[1,0.5]];portConstraint=eastwest;" vertex="1" parent="E_lYnqVRtEGuCz4sBSCE-3">
          <mxGeometry y="26" width="160" height="24" as="geometry" />
        </mxCell>
        <mxCell id="E_lYnqVRtEGuCz4sBSCE-5" value="filtrar sondas&lt;br&gt;de error alto" style="text;html=1;strokeColor=none;fillColor=none;spacingLeft=4;spacingRight=4;whiteSpace=wrap;overflow=hidden;rotatable=0;points=[[0,0.5],[1,0.5]];portConstraint=eastwest;" vertex="1" parent="E_lYnqVRtEGuCz4sBSCE-3">
          <mxGeometry y="50" width="160" height="38" as="geometry" />
        </mxCell>
        <mxCell id="E_lYnqVRtEGuCz4sBSCE-54" value="avisar y guardar sondas" style="text;html=1;strokeColor=none;fillColor=none;spacingLeft=4;spacingRight=4;whiteSpace=wrap;overflow=hidden;rotatable=0;points=[[0,0.5],[1,0.5]];portConstraint=eastwest;" vertex="1" parent="E_lYnqVRtEGuCz4sBSCE-3">
          <mxGeometry y="88" width="160" height="22" as="geometry" />
        </mxCell>
        <mxCell id="E_lYnqVRtEGuCz4sBSCE-9" value="Sondas de &lt;br&gt;error alto" style="html=1;rounded=0;shadow=0;comic=0;labelBackgroundColor=none;strokeWidth=2;fontFamily=Verdana;fontSize=12;align=center;shape=mxgraph.ios7ui.horLines;" vertex="1" parent="1">
          <mxGeometry x="70" y="42" width="135" height="50" as="geometry" />
        </mxCell>
        <mxCell id="E_lYnqVRtEGuCz4sBSCE-43" style="edgeStyle=orthogonalEdgeStyle;rounded=0;orthogonalLoop=1;jettySize=auto;html=1;" edge="1" parent="1" source="E_lYnqVRtEGuCz4sBSCE-21" target="E_lYnqVRtEGuCz4sBSCE-42">
          <mxGeometry relative="1" as="geometry" />
        </mxCell>
        <mxCell id="E_lYnqVRtEGuCz4sBSCE-73" style="edgeStyle=orthogonalEdgeStyle;rounded=0;orthogonalLoop=1;jettySize=auto;html=1;" edge="1" parent="1" source="E_lYnqVRtEGuCz4sBSCE-21" target="qf_Xf1xaWqLLTU25-IPU-40">
          <mxGeometry relative="1" as="geometry" />
        </mxCell>
        <mxCell id="E_lYnqVRtEGuCz4sBSCE-21" value="Promediar y filtrar" style="swimlane;html=1;fontStyle=0;childLayout=stackLayout;horizontal=1;startSize=26;fillColor=#e0e0e0;horizontalStack=0;resizeParent=1;resizeLast=0;collapsible=1;marginBottom=0;swimlaneFillColor=#ffffff;align=center;rounded=1;shadow=0;comic=0;labelBackgroundColor=none;strokeWidth=1;fontFamily=Verdana;fontSize=12" vertex="1" parent="1">
          <mxGeometry x="780" y="257" width="190" height="100" as="geometry">
            <mxRectangle x="545" y="510" width="200" height="30" as="alternateBounds" />
          </mxGeometry>
        </mxCell>
        <mxCell id="E_lYnqVRtEGuCz4sBSCE-23" value="promediar expresión" style="text;html=1;strokeColor=none;fillColor=none;spacingLeft=4;spacingRight=4;whiteSpace=wrap;overflow=hidden;rotatable=0;points=[[0,0.5],[1,0.5]];portConstraint=eastwest;" vertex="1" parent="E_lYnqVRtEGuCz4sBSCE-21">
          <mxGeometry y="26" width="190" height="26" as="geometry" />
        </mxCell>
        <mxCell id="E_lYnqVRtEGuCz4sBSCE-16" value="filtrar por error estándar" style="text;html=1;strokeColor=none;fillColor=none;spacingLeft=4;spacingRight=4;whiteSpace=wrap;overflow=hidden;rotatable=0;points=[[0,0.5],[1,0.5]];portConstraint=eastwest;" vertex="1" parent="E_lYnqVRtEGuCz4sBSCE-21">
          <mxGeometry y="52" width="190" height="26" as="geometry" />
        </mxCell>
        <mxCell id="E_lYnqVRtEGuCz4sBSCE-70" value="&lt;b&gt;avisar y guardar genes&lt;/b&gt;" style="text;html=1;strokeColor=none;fillColor=none;spacingLeft=4;spacingRight=4;whiteSpace=wrap;overflow=hidden;rotatable=0;points=[[0,0.5],[1,0.5]];portConstraint=eastwest;" vertex="1" parent="E_lYnqVRtEGuCz4sBSCE-21">
          <mxGeometry y="78" width="190" height="22" as="geometry" />
        </mxCell>
        <mxCell id="E_lYnqVRtEGuCz4sBSCE-35" value="Sondas&lt;br&gt;inespecíficas" style="html=1;rounded=0;shadow=0;comic=0;labelBackgroundColor=none;strokeWidth=2;fontFamily=Verdana;fontSize=12;align=center;shape=mxgraph.ios7ui.horLines;" vertex="1" parent="1">
          <mxGeometry x="534" y="170" width="135" height="50" as="geometry" />
        </mxCell>
        <mxCell id="E_lYnqVRtEGuCz4sBSCE-42" value="Genes de alto error" style="html=1;rounded=0;shadow=0;comic=0;labelBackgroundColor=none;strokeWidth=2;fontFamily=Verdana;fontSize=12;align=center;shape=mxgraph.ios7ui.horLines;" vertex="1" parent="1">
          <mxGeometry x="807.5" y="180" width="135" height="50" as="geometry" />
        </mxCell>
        <mxCell id="E_lYnqVRtEGuCz4sBSCE-46" value="Controlar calidad" style="swimlane;html=1;fontStyle=0;childLayout=stackLayout;horizontal=1;startSize=26;fillColor=#e0e0e0;horizontalStack=0;resizeParent=1;resizeLast=0;collapsible=1;marginBottom=0;swimlaneFillColor=#ffffff;align=center;rounded=1;shadow=0;comic=0;labelBackgroundColor=none;strokeWidth=1;fontFamily=Verdana;fontSize=12" vertex="1" parent="1">
          <mxGeometry x="70" y="151" width="170" height="122" as="geometry" />
        </mxCell>
        <mxCell id="E_lYnqVRtEGuCz4sBSCE-47" value="gráfico de componentes" style="text;html=1;strokeColor=none;fillColor=none;spacingLeft=4;spacingRight=4;whiteSpace=wrap;overflow=hidden;rotatable=0;points=[[0,0.5],[1,0.5]];portConstraint=eastwest;" vertex="1" parent="E_lYnqVRtEGuCz4sBSCE-46">
          <mxGeometry y="26" width="170" height="24" as="geometry" />
        </mxCell>
        <mxCell id="E_lYnqVRtEGuCz4sBSCE-49" value="heatmap" style="text;html=1;strokeColor=none;fillColor=none;spacingLeft=4;spacingRight=4;whiteSpace=wrap;overflow=hidden;rotatable=0;points=[[0,0.5],[1,0.5]];portConstraint=eastwest;" vertex="1" parent="E_lYnqVRtEGuCz4sBSCE-46">
          <mxGeometry y="50" width="170" height="24" as="geometry" />
        </mxCell>
        <mxCell id="E_lYnqVRtEGuCz4sBSCE-50" value="boxplot" style="text;html=1;strokeColor=none;fillColor=none;spacingLeft=4;spacingRight=4;whiteSpace=wrap;overflow=hidden;rotatable=0;points=[[0,0.5],[1,0.5]];portConstraint=eastwest;" vertex="1" parent="E_lYnqVRtEGuCz4sBSCE-46">
          <mxGeometry y="74" width="170" height="24" as="geometry" />
        </mxCell>
        <mxCell id="RKoIOBhmnUExQP_8aQGl-1" value="curva de intensidad" style="text;html=1;strokeColor=none;fillColor=none;spacingLeft=4;spacingRight=4;whiteSpace=wrap;overflow=hidden;rotatable=0;points=[[0,0.5],[1,0.5]];portConstraint=eastwest;" vertex="1" parent="E_lYnqVRtEGuCz4sBSCE-46">
          <mxGeometry y="98" width="170" height="24" as="geometry" />
        </mxCell>
        <mxCell id="E_lYnqVRtEGuCz4sBSCE-60" value="Genes no expresados&lt;br&gt;diferencialmente" style="html=1;rounded=0;shadow=0;comic=0;labelBackgroundColor=none;strokeWidth=2;fontFamily=Verdana;fontSize=12;align=center;shape=mxgraph.ios7ui.horLines;" vertex="1" parent="1">
          <mxGeometry x="588.75" y="770" width="135" height="50" as="geometry" />
        </mxCell>
        <mxCell id="5DtSrJkfHcDawv0QVdIE-23" style="edgeStyle=orthogonalEdgeStyle;rounded=0;orthogonalLoop=1;jettySize=auto;html=1;" edge="1" parent="1" source="E_lYnqVRtEGuCz4sBSCE-65" target="5DtSrJkfHcDawv0QVdIE-20">
          <mxGeometry relative="1" as="geometry">
            <Array as="points">
              <mxPoint x="530" y="470" />
              <mxPoint x="530" y="660" />
              <mxPoint x="230" y="660" />
            </Array>
          </mxGeometry>
        </mxCell>
        <mxCell id="5DtSrJkfHcDawv0QVdIE-24" style="edgeStyle=orthogonalEdgeStyle;rounded=0;orthogonalLoop=1;jettySize=auto;html=1;" edge="1" parent="1" source="E_lYnqVRtEGuCz4sBSCE-65" target="qf_Xf1xaWqLLTU25-IPU-29">
          <mxGeometry relative="1" as="geometry">
            <Array as="points">
              <mxPoint x="530" y="470" />
              <mxPoint x="530" y="510" />
            </Array>
          </mxGeometry>
        </mxCell>
        <mxCell id="5DtSrJkfHcDawv0QVdIE-25" style="edgeStyle=orthogonalEdgeStyle;rounded=0;orthogonalLoop=1;jettySize=auto;html=1;" edge="1" parent="1" source="E_lYnqVRtEGuCz4sBSCE-65" target="qf_Xf1xaWqLLTU25-IPU-46">
          <mxGeometry relative="1" as="geometry">
            <Array as="points">
              <mxPoint x="530" y="470" />
              <mxPoint x="530" y="755" />
            </Array>
          </mxGeometry>
        </mxCell>
        <mxCell id="5DtSrJkfHcDawv0QVdIE-26" style="edgeStyle=orthogonalEdgeStyle;rounded=0;orthogonalLoop=1;jettySize=auto;html=1;" edge="1" parent="1" source="E_lYnqVRtEGuCz4sBSCE-65" target="5DtSrJkfHcDawv0QVdIE-17">
          <mxGeometry relative="1" as="geometry">
            <Array as="points">
              <mxPoint x="530" y="470" />
              <mxPoint x="530" y="660" />
            </Array>
          </mxGeometry>
        </mxCell>
        <mxCell id="5DtSrJkfHcDawv0QVdIE-27" style="edgeStyle=orthogonalEdgeStyle;rounded=0;orthogonalLoop=1;jettySize=auto;html=1;" edge="1" parent="1" source="E_lYnqVRtEGuCz4sBSCE-65" target="5DtSrJkfHcDawv0QVdIE-9">
          <mxGeometry relative="1" as="geometry">
            <Array as="points">
              <mxPoint x="530" y="470" />
              <mxPoint x="530" y="660" />
              <mxPoint x="290" y="660" />
              <mxPoint x="290" y="545" />
            </Array>
          </mxGeometry>
        </mxCell>
        <mxCell id="E_lYnqVRtEGuCz4sBSCE-65" value="Análisis y metanálisis&lt;br&gt;&amp;nbsp;de resultados" style="swimlane;html=1;fontStyle=0;childLayout=stackLayout;horizontal=1;startSize=30;fillColor=#e0e0e0;horizontalStack=0;resizeParent=1;resizeLast=0;collapsible=1;marginBottom=0;swimlaneFillColor=#ffffff;align=center;rounded=1;shadow=0;comic=0;labelBackgroundColor=none;strokeWidth=1;fontFamily=Verdana;fontSize=12" vertex="1" parent="1">
          <mxGeometry x="572.5" y="400" width="190" height="120" as="geometry">
            <mxRectangle x="560" y="340" width="150" height="40" as="alternateBounds" />
          </mxGeometry>
        </mxCell>
        <mxCell id="E_lYnqVRtEGuCz4sBSCE-66" value="cargar mútiples datos" style="text;html=1;strokeColor=none;fillColor=none;spacingLeft=4;spacingRight=4;whiteSpace=wrap;overflow=hidden;rotatable=0;points=[[0,0.5],[1,0.5]];portConstraint=eastwest;" vertex="1" parent="E_lYnqVRtEGuCz4sBSCE-65">
          <mxGeometry y="30" width="190" height="30" as="geometry" />
        </mxCell>
        <mxCell id="E_lYnqVRtEGuCz4sBSCE-76" value="seleccionar gráfico" style="text;html=1;strokeColor=none;fillColor=none;spacingLeft=4;spacingRight=4;whiteSpace=wrap;overflow=hidden;rotatable=0;points=[[0,0.5],[1,0.5]];portConstraint=eastwest;" vertex="1" parent="E_lYnqVRtEGuCz4sBSCE-65">
          <mxGeometry y="60" width="190" height="30" as="geometry" />
        </mxCell>
        <mxCell id="5DtSrJkfHcDawv0QVdIE-28" value="setear parámetros" style="text;html=1;strokeColor=none;fillColor=none;spacingLeft=4;spacingRight=4;whiteSpace=wrap;overflow=hidden;rotatable=0;points=[[0,0.5],[1,0.5]];portConstraint=eastwest;" vertex="1" parent="E_lYnqVRtEGuCz4sBSCE-65">
          <mxGeometry y="90" width="190" height="30" as="geometry" />
        </mxCell>
        <mxCell id="E_lYnqVRtEGuCz4sBSCE-85" style="edgeStyle=orthogonalEdgeStyle;rounded=0;orthogonalLoop=1;jettySize=auto;html=1;" edge="1" parent="1" source="E_lYnqVRtEGuCz4sBSCE-74" target="E_lYnqVRtEGuCz4sBSCE-84">
          <mxGeometry relative="1" as="geometry" />
        </mxCell>
        <mxCell id="E_lYnqVRtEGuCz4sBSCE-74" value="Enriquecer" style="swimlane;html=1;fontStyle=0;childLayout=stackLayout;horizontal=1;startSize=30;fillColor=#e0e0e0;horizontalStack=0;resizeParent=1;resizeLast=0;collapsible=1;marginBottom=0;swimlaneFillColor=#ffffff;align=center;rounded=1;shadow=0;comic=0;labelBackgroundColor=none;strokeWidth=1;fontFamily=Verdana;fontSize=12" vertex="1" parent="1">
          <mxGeometry x="588.75" y="620" width="157.5" height="100" as="geometry">
            <mxRectangle x="560" y="340" width="150" height="40" as="alternateBounds" />
          </mxGeometry>
        </mxCell>
        <mxCell id="E_lYnqVRtEGuCz4sBSCE-75" value="enriquecer genes" style="text;html=1;strokeColor=none;fillColor=none;spacingLeft=4;spacingRight=4;whiteSpace=wrap;overflow=hidden;rotatable=0;points=[[0,0.5],[1,0.5]];portConstraint=eastwest;" vertex="1" parent="E_lYnqVRtEGuCz4sBSCE-74">
          <mxGeometry y="30" width="157.5" height="30" as="geometry" />
        </mxCell>
        <mxCell id="E_lYnqVRtEGuCz4sBSCE-82" value="guardar resultados enriquecidos" style="text;html=1;strokeColor=none;fillColor=none;spacingLeft=4;spacingRight=4;whiteSpace=wrap;overflow=hidden;rotatable=0;points=[[0,0.5],[1,0.5]];portConstraint=eastwest;" vertex="1" parent="E_lYnqVRtEGuCz4sBSCE-74">
          <mxGeometry y="60" width="157.5" height="40" as="geometry" />
        </mxCell>
        <mxCell id="E_lYnqVRtEGuCz4sBSCE-86" style="edgeStyle=orthogonalEdgeStyle;rounded=0;orthogonalLoop=1;jettySize=auto;html=1;" edge="1" parent="1" source="E_lYnqVRtEGuCz4sBSCE-84" target="E_lYnqVRtEGuCz4sBSCE-65">
          <mxGeometry relative="1" as="geometry" />
        </mxCell>
        <mxCell id="E_lYnqVRtEGuCz4sBSCE-84" value="Genes expresados&lt;br&gt;diferencialmente&lt;br&gt;enriquecidos" style="html=1;rounded=0;shadow=0;comic=0;labelBackgroundColor=none;strokeWidth=2;fontFamily=Verdana;fontSize=12;align=center;shape=mxgraph.ios7ui.horLines;" vertex="1" parent="1">
          <mxGeometry x="600" y="540" width="135" height="50" as="geometry" />
        </mxCell>
        <mxCell id="5DtSrJkfHcDawv0QVdIE-9" value="Mostrar resultados GO" style="swimlane;html=1;fontStyle=0;childLayout=stackLayout;horizontal=1;startSize=26;fillColor=#e0e0e0;horizontalStack=0;resizeParent=1;resizeLast=0;collapsible=1;marginBottom=0;swimlaneFillColor=#ffffff;align=center;rounded=1;shadow=0;comic=0;labelBackgroundColor=none;strokeWidth=1;fontFamily=Verdana;fontSize=12" vertex="1" parent="1">
          <mxGeometry x="70" y="510" width="190" height="70" as="geometry">
            <mxRectangle x="545" y="510" width="200" height="30" as="alternateBounds" />
          </mxGeometry>
        </mxCell>
        <mxCell id="5DtSrJkfHcDawv0QVdIE-11" value="mosaic plot funciones" style="text;html=1;strokeColor=none;fillColor=none;spacingLeft=4;spacingRight=4;whiteSpace=wrap;overflow=hidden;rotatable=0;points=[[0,0.5],[1,0.5]];portConstraint=eastwest;" vertex="1" parent="5DtSrJkfHcDawv0QVdIE-9">
          <mxGeometry y="26" width="190" height="20" as="geometry" />
        </mxCell>
        <mxCell id="5DtSrJkfHcDawv0QVdIE-14" value="mosaic plot enfermedades" style="text;html=1;strokeColor=none;fillColor=none;spacingLeft=4;spacingRight=4;whiteSpace=wrap;overflow=hidden;rotatable=0;points=[[0,0.5],[1,0.5]];portConstraint=eastwest;" vertex="1" parent="5DtSrJkfHcDawv0QVdIE-9">
          <mxGeometry y="46" width="190" height="20" as="geometry" />
        </mxCell>
        <mxCell id="5DtSrJkfHcDawv0QVdIE-17" value="Mostrar resultados meta" style="swimlane;html=1;fontStyle=0;childLayout=stackLayout;horizontal=1;startSize=26;fillColor=#e0e0e0;horizontalStack=0;resizeParent=1;resizeLast=0;collapsible=1;marginBottom=0;swimlaneFillColor=#ffffff;align=center;rounded=1;shadow=0;comic=0;labelBackgroundColor=none;strokeWidth=1;fontFamily=Verdana;fontSize=12" vertex="1" parent="1">
          <mxGeometry x="15" y="620" width="190" height="86" as="geometry">
            <mxRectangle x="545" y="510" width="200" height="30" as="alternateBounds" />
          </mxGeometry>
        </mxCell>
        <mxCell id="5DtSrJkfHcDawv0QVdIE-18" value="diagrama de Venn de genes" style="text;html=1;strokeColor=none;fillColor=none;spacingLeft=4;spacingRight=4;whiteSpace=wrap;overflow=hidden;rotatable=0;points=[[0,0.5],[1,0.5]];portConstraint=eastwest;" vertex="1" parent="5DtSrJkfHcDawv0QVdIE-17">
          <mxGeometry y="26" width="190" height="34" as="geometry" />
        </mxCell>
        <mxCell id="Q55pqvuOBsW54_2sHYhL-1" value="Heatmap (grupo x gen)" style="text;html=1;strokeColor=none;fillColor=none;spacingLeft=4;spacingRight=4;whiteSpace=wrap;overflow=hidden;rotatable=0;points=[[0,0.5],[1,0.5]];portConstraint=eastwest;" vertex="1" parent="5DtSrJkfHcDawv0QVdIE-17">
          <mxGeometry y="60" width="190" height="26" as="geometry" />
        </mxCell>
        <mxCell id="5DtSrJkfHcDawv0QVdIE-20" value="Mostrar resultados gen" style="swimlane;html=1;fontStyle=0;childLayout=stackLayout;horizontal=1;startSize=26;fillColor=#e0e0e0;horizontalStack=0;resizeParent=1;resizeLast=0;collapsible=1;marginBottom=0;swimlaneFillColor=#ffffff;align=center;rounded=1;shadow=0;comic=0;labelBackgroundColor=none;strokeWidth=1;fontFamily=Verdana;fontSize=12" vertex="1" parent="1">
          <mxGeometry x="90" y="744" width="190" height="76" as="geometry">
            <mxRectangle x="545" y="510" width="200" height="30" as="alternateBounds" />
          </mxGeometry>
        </mxCell>
        <mxCell id="5DtSrJkfHcDawv0QVdIE-21" value="Expression atlas" style="text;html=1;strokeColor=none;fillColor=none;spacingLeft=4;spacingRight=4;whiteSpace=wrap;overflow=hidden;rotatable=0;points=[[0,0.5],[1,0.5]];portConstraint=eastwest;" vertex="1" parent="5DtSrJkfHcDawv0QVdIE-20">
          <mxGeometry y="26" width="190" height="20" as="geometry" />
        </mxCell>
        <mxCell id="sHAt4Tpe0paBPK0B_Exn-1" value="mostrar pathway" style="text;html=1;strokeColor=none;fillColor=none;spacingLeft=4;spacingRight=4;whiteSpace=wrap;overflow=hidden;rotatable=0;points=[[0,0.5],[1,0.5]];portConstraint=eastwest;" vertex="1" parent="5DtSrJkfHcDawv0QVdIE-20">
          <mxGeometry y="46" width="190" height="30" as="geometry" />
        </mxCell>
      </root>
    </mxGraphModel>
  </diagram>
</mxfile>
